<?xml version="1.0" standalone="no"?>
<!DOCTYPE svg PUBLIC "-//W3C//DTD SVG 20010904//EN"
 "http://www.w3.org/TR/2001/REC-SVG-20010904/DTD/svg10.dtd">
<svg version="1.0" xmlns="http://www.w3.org/2000/svg"
 width="512.000000pt" height="512.000000pt" viewBox="0 0 512.000000 512.000000"
 preserveAspectRatio="xMidYMid meet">
<metadata>
Created by potrace 1.11, written by Peter Selinger 2001-2013
</metadata>
<g transform="translate(0.000000,512.000000) scale(0.100000,-0.100000)"
fill="#000000" stroke="none">
<path d="M2250 4930 c-82 -11 -143 -21 -160 -25 -8 -2 -31 -6 -50 -9 -19 -3
-50 -10 -68 -15 -18 -5 -33 -10 -35 -10 -10 1 -79 -19 -166 -47 -182 -61 -365
-145 -494 -227 -31 -20 -60 -37 -63 -37 -10 0 -195 -141 -269 -206 -77 -66
-200 -191 -251 -254 -16 -19 -32 -37 -35 -40 -11 -8 -142 -195 -184 -262 -124
-196 -249 -509 -294 -738 -6 -30 -14 -66 -17 -80 -29 -140 -44 -557 -24 -685
4 -27 10 -72 14 -100 5 -43 14 -86 52 -254 12 -57 70 -224 107 -311 285 -670
849 -1172 1540 -1369 105 -30 176 -47 237 -56 19 -3 42 -8 50 -10 103 -27 650
-27 750 0 8 2 30 7 48 10 665 112 1272 532 1628 1125 59 100 143 267 169 340
132 371 158 514 159 860 1 255 -3 322 -30 455 -8 44 -18 91 -20 105 -26 131
-103 348 -185 515 -234 482 -632 876 -1122 1109 -53 25 -100 46 -103 46 -3 0
-20 7 -37 15 -28 13 -236 84 -262 90 -5 1 -28 5 -50 9 -22 4 -53 12 -70 17
-38 11 -76 17 -200 34 -106 14 -470 17 -565 5z"/>
</g>
</svg>
